<!--?xml version="1.0" encoding="utf-8"?-->
<!-- Generator: Adobe Illustrator 24.1.1, SVG Export Plug-In . SVG Version: 6.00 Build 0)  -->
<svg version="1.1" id="_x31_0" xmlns="http://www.w3.org/2000/svg" xmlns:xlink="http://www.w3.org/1999/xlink" x="0px" y="0px" viewBox="0 0 512 512" style="width: 32px; height: 32px; opacity: 1;" xml:space="preserve">
<style type="text/css">
	.st0{fill:#374149;}
</style>
<g>
	<path class="st0" d="M31.88,388.906l1.769,4.253l1.762,4.245l4.6,0.047l4.605,0.05l13.802,0.137l35.946,0.418l6.206,0.066
		l13.126,0.481v0.008l0.629,54.949l0.206,13.857l0.074,4.585l0.07,4.577l4.23,1.75l4.23,1.754l12.751,5.296l42.87,17.778
		l12.751,5.295l4.277,1.778l4.272,1.773l3.297-3.25l3.296-3.249l9.826-9.69l25.682-25.123l13.825-13.54l13.876,13.547l25.718,25.155
		l9.786,9.65l3.297,3.249l3.296,3.25l4.276-1.773l4.269-1.778l12.759-5.299l42.858-17.77l12.763-5.304l4.226-1.75l4.234-1.754
		l0.066-4.581l0.07-4.577l0.21-13.802l0.625-54.985l0.004-0.367l19.313-0.207l35.988-0.418l13.778-0.137l4.605-0.05l4.604-0.047
		l1.762-4.249l1.766-4.253l5.295-12.755l17.715-42.89l5.288-12.739l1.758-4.238l1.761-4.238l-3.198-3.292l-3.198-3.292l-9.619-9.897
		l-38.433-39.343l-0.27-0.273l13.517-13.845l25.142-25.627l9.662-9.947l3.198-3.289l3.198-3.296l-1.761-4.234l-1.758-4.241
		l-5.296-12.755l-17.699-42.85l-5.307-12.778l-1.762-4.25l-1.762-4.249l-4.604-0.05l-4.605-0.047l-13.806-0.137l-54.91-0.629
		l-0.398-0.008l-0.246-19.41l-0.348-35.855l-0.21-13.95l-0.07-4.593l-0.066-4.605l-4.261-1.746l-4.257-1.746l-12.759-5.23
		L333.249,8.826l-12.755-5.292l-4.253-1.766L311.98,0l-3.292,3.226l-3.293,3.222l-9.826,9.615l-12.614,12.326l-27.198,26.092
		l-0.004-0.008l-39.327-38.414l-9.814-9.615l-3.3-3.222L200.02,0l-4.261,1.769l-4.253,1.77l-12.751,5.296l-42.862,17.77
		l-12.705,5.206l-4.261,1.746l-4.253,1.746l-0.07,4.597l-0.074,4.597l-0.206,13.876l-0.348,35.977l-0.066,5.128l-0.625,14.246
		h-0.008l-54.878,0.629l-13.782,0.137l-4.605,0.047l-4.6,0.05l-1.762,4.246l-1.769,4.253l-5.296,12.759L8.865,178.731l-5.288,12.736
		l-1.757,4.241l-1.766,4.234l3.202,3.296l3.198,3.293l9.619,9.892l25.21,25.698l3.296,3.378l9.881,10.838l-0.008,0.008L16.11,295.53
		l-9.654,9.932l-3.198,3.288l-3.202,3.292l1.766,4.238l1.757,4.238l5.304,12.762l17.691,42.842L31.88,388.906z M58.769,362.786
		l-17.707-42.87L79.468,280.6l12.743,68.938l2.496,13.666L58.769,362.786z M66.135,217.77l-25.073-25.698l17.707-42.87l54.996-0.625
		l-39.812,57.878L66.135,217.77z M173.994,131.636c7.737-5.089,16.098-9.553,25.026-13.243c12.685-5.3,25.721-8.646,38.753-10.318
		c6.136-0.766,12.342-1.187,18.473-1.187c6.066,0,12.06,0.352,17.985,1.117c23.002,2.793,45.033,10.947,64.267,23.562
		c13.247,8.642,25.17,19.519,35.203,32.204c8.366,10.595,15.478,22.515,20.91,35.622c3.765,9.06,6.558,18.262,8.44,27.533
		c2.019,9.83,2.999,19.801,2.999,29.626c0,5.784-0.351,11.572-1.05,17.219c-2.714,23.769-11.15,46.561-24.397,66.29
		c-8.502,12.826-19.102,24.327-31.435,34.016c-10.529,8.366-22.448,15.403-35.551,20.843c-9.552,3.972-19.242,6.831-28.998,8.714
		c-9.412,1.812-18.894,2.718-28.302,2.718c-9.83,0-19.449-0.976-29.002-2.858h-0.066c-23.28-4.601-45.31-14.708-63.99-29.552
		c-12.196-9.623-22.932-21.191-31.79-34.509c-5.23-7.873-9.756-16.379-13.517-25.514c-5.44-13.103-8.858-26.487-10.389-39.87
		c-0.698-5.784-1.046-11.572-1.046-17.29c0-10.314,1.046-20.488,3.206-30.458c4.597-22.589,14.501-43.846,28.787-62.038
		C148.34,151.71,160.188,140.626,173.994,131.636z M280.725,79.346l39.23-38.332l42.874,17.778l0.293,30.189l0.023,5.772
		l-52.309-9.716L280.725,79.346z M453.169,362.786l-30.126,0.352l-5.769,0.035l15.262-82.573l38.406,39.316L453.169,362.786z
		 M148.547,398.266l57.854,39.73l11.346,7.83l-25.698,25.143l-42.874-17.778L148.547,398.266z M294.265,445.787l69.189-47.521
		l-0.625,54.926l-42.874,17.778l-21.535-21.074L294.265,445.787z M445.835,217.766l-47.592-69.188l54.926,0.625l17.774,42.87
		l-21.199,21.73L445.835,217.766z M231.248,79.448L161.965,92.32l-13.138,2.41l0.348-35.938l42.874-17.778l24.874,24.307
		L231.248,79.448z" style="fill: rgb(58, 171, 210);"></path>
	<path class="st0" d="M315.429,315.8c32.692-32.622,32.622-85.599,0.07-118.221c-32.762-32.693-85.739-32.763-118.361-0.074
		c-32.697,32.626-32.626,85.602,0,118.295C229.826,348.492,282.807,348.492,315.429,315.8z M213.04,268.502
		c-0.57-2.074-0.976-4.156-1.234-6.242c-0.098-0.804-0.18-1.613-0.234-2.425c-0.074-1.05-0.149-2.101-0.149-3.144
		c0-17.637,10.389-34.364,27.674-41.546c5.647-2.301,11.431-3.418,17.149-3.418c17.637,0,34.434,10.455,41.546,27.744
		c2.301,5.644,3.418,11.431,3.418,17.149c0,17.563-10.454,34.364-27.744,41.546v-0.07c-1.031,0.433-2.07,0.777-3.109,1.128
		c-0.746,0.25-1.496,0.485-2.25,0.695c-2.074,0.578-4.151,0.996-6.233,1.262c-0.816,0.106-1.633,0.188-2.453,0.246
		c-1.038,0.074-2.074,0.152-3.105,0.152c-17.637,0-34.364-10.454-41.475-27.744c-0.43-1.027-0.77-2.066-1.117-3.101
		C213.478,269.997,213.248,269.251,213.04,268.502z" style="fill: rgb(58, 171, 210);"></path>
</g>
</svg>
